<?xml version="1.0" encoding="UTF-8" standalone="no" ?>
<!DOCTYPE svg PUBLIC "-//W3C//DTD SVG 1.1//EN" "http://www.w3.org/Graphics/SVG/1.1/DTD/svg11.dtd">
<svg xmlns="http://www.w3.org/2000/svg" xmlns:xlink="http://www.w3.org/1999/xlink" version="1.1" width="640" height="480" viewBox="0 0 640 480" xml:space="preserve">
<desc>Created with Fabric.js 3.6.6</desc>
<defs>
</defs>
<g transform="matrix(3.19 0 0 4.19 301.16 243.68)"  >
<linearGradient id="SVGID_75" gradientUnits="userSpaceOnUse" gradientTransform="matrix(1 0 0 1 -50 -50)"  x1="0" y1="50" x2="100" y2="50">
<stop offset="0%" style="stop-color:rgba(30, 39, 197, 1);"/>
<stop offset="100%" style="stop-color:rgba(198, 14, 201, 1);"/>
</linearGradient>
<polygon style="stroke: rgb(0,0,0); stroke-width: 8; stroke-dasharray: none; stroke-linecap: butt; stroke-dashoffset: 0; stroke-linejoin: miter; stroke-miterlimit: 4; fill: url(#SVGID_75); fill-rule: nonzero; opacity: 1;" vector-effect="non-scaling-stroke"  points="-50,-50 -50,50 50,50 50,-50 " />
</g>
<g transform="matrix(2.7 0 0 1.74 299.34 158.76)"  >
<polygon style="stroke: rgb(0,0,0); stroke-width: 8; stroke-dasharray: none; stroke-linecap: butt; stroke-dashoffset: 0; stroke-linejoin: miter; stroke-miterlimit: 4; fill: rgb(85,133,185); fill-rule: nonzero; opacity: 1;" vector-effect="non-scaling-stroke"  points="-50,-50 -50,50 50,50 50,-50 " />
</g>
<g transform="matrix(1 0 0 1 392.32 62.87)"  >
<line style="stroke: rgb(0,0,0); stroke-width: 2; stroke-dasharray: none; stroke-linecap: butt; stroke-dashoffset: 0; stroke-linejoin: miter; stroke-miterlimit: 4; fill: rgb(0,0,0); fill-rule: nonzero; opacity: 1;" vector-effect="non-scaling-stroke"  x1="0" y1="0" x2="0" y2="0" />
</g>
<g transform="matrix(0.96 0 0 0.96 500.99 78.17)"  >
<path style="stroke: rgb(0,0,0); stroke-width: 8; stroke-dasharray: none; stroke-linecap: butt; stroke-dashoffset: 0; stroke-linejoin: miter; stroke-miterlimit: 10; fill: rgb(254,159,255); fill-rule: evenodd; opacity: 1;" vector-effect="non-scaling-stroke"  transform=" translate(-51.83, -51.83)" d="m 0 51.82677 l 42.665005 -9.161766 l 9.161766 -42.665005 l 9.161766 42.665005 l 42.665005 9.161766 l -42.665005 9.161766 l -9.161766 42.665005 l -9.161766 -42.665005 z" stroke-linecap="round" />
</g>
<g transform="matrix(0.96 0 0 0.96 389.37 184.04)"  >
<path style="stroke: rgb(0,0,0); stroke-width: 8; stroke-dasharray: none; stroke-linecap: butt; stroke-dashoffset: 0; stroke-linejoin: miter; stroke-miterlimit: 10; fill: rgb(177,182,255); fill-rule: evenodd; opacity: 1;" vector-effect="non-scaling-stroke"  transform=" translate(-51.83, -51.83)" d="m 0 51.82677 l 42.665005 -9.161766 l 9.161766 -42.665005 l 9.161766 42.665005 l 42.665005 9.161766 l -42.665005 9.161766 l -9.161766 42.665005 l -9.161766 -42.665005 z" stroke-linecap="round" />
</g>
<g transform="matrix(0.96 0 0 0.96 169.26 398.94)"  >
<path style="stroke: rgb(0,0,0); stroke-width: 8; stroke-dasharray: none; stroke-linecap: butt; stroke-dashoffset: 0; stroke-linejoin: miter; stroke-miterlimit: 10; fill: rgb(95,219,53); fill-rule: evenodd; opacity: 1;" vector-effect="non-scaling-stroke"  transform=" translate(-51.83, -51.83)" d="m 0 51.82677 l 42.665005 -9.161766 l 9.161766 -42.665005 l 9.161766 42.665005 l 42.665005 9.161766 l -42.665005 9.161766 l -9.161766 42.665005 l -9.161766 -42.665005 z" stroke-linecap="round" />
</g>
<g transform="matrix(0.96 0 0 0.96 134.9 118.29)"  >
<path style="stroke: rgb(0,0,0); stroke-width: 8; stroke-dasharray: none; stroke-linecap: butt; stroke-dashoffset: 0; stroke-linejoin: miter; stroke-miterlimit: 10; fill: rgb(253,140,67); fill-rule: evenodd; opacity: 1;" vector-effect="non-scaling-stroke"  transform=" translate(-51.83, -51.83)" d="m 0 51.82677 l 42.665005 -9.161766 l 9.161766 -42.665005 l 9.161766 42.665005 l 42.665005 9.161766 l -42.665005 9.161766 l -9.161766 42.665005 l -9.161766 -42.665005 z" stroke-linecap="round" />
</g>
<g transform="matrix(0.96 0 0 0.96 472.02 411.74)"  >
<path style="stroke: rgb(0,0,0); stroke-width: 8; stroke-dasharray: none; stroke-linecap: butt; stroke-dashoffset: 0; stroke-linejoin: miter; stroke-miterlimit: 10; fill: rgb(255,175,206); fill-rule: evenodd; opacity: 1;" vector-effect="non-scaling-stroke"  transform=" translate(-51.83, -51.83)" d="m 0 51.82677 l 42.665005 -9.161766 l 9.161766 -42.665005 l 9.161766 42.665005 l 42.665005 9.161766 l -42.665005 9.161766 l -9.161766 42.665005 l -9.161766 -42.665005 z" stroke-linecap="round" />
</g>
</svg>